<svg width="80" height="80" viewBox="0 0 80 80" fill="none" xmlns="http://www.w3.org/2000/svg">
<path d="M40 46.6667V36.6667M40 36.6667V26.6667M40 36.6667H30M40 36.6667H50M23.7452 62.3373L18.6654 66.401C15.8915 68.6203 14.5038 69.7303 13.3366 69.7317C12.3215 69.7327 11.3615 69.271 10.7282 68.4777C10 67.5653 10 65.7897 10 62.2373V24.0007C10 20.267 10 18.3987 10.7266 16.9727C11.3658 15.7182 12.3849 14.6991 13.6393 14.06C15.0654 13.3333 16.9336 13.3333 20.6673 13.3333H59.334C63.0677 13.3333 64.9337 13.3333 66.3597 14.06C67.614 14.6991 68.635 15.7182 69.274 16.9727C70 18.3973 70 20.2633 70 23.9897V49.3453C70 53.0717 70 54.935 69.274 56.3597C68.635 57.614 67.6143 58.635 66.36 59.274C64.9353 60 63.0717 60 59.3453 60H30.4085C29.0217 60 28.3276 60 27.6644 60.136C27.076 60.257 26.5072 60.456 25.9723 60.7293C25.3716 61.036 24.8321 61.4677 23.7574 62.3273L23.7452 62.3373Z" stroke="black" stroke-width="2" stroke-linecap="round" stroke-linejoin="round"/>
</svg>
