<svg width="92" height="92" viewBox="0 0 92 92" fill="none" xmlns="http://www.w3.org/2000/svg">
<path d="M15.3333 38.3333L38.7459 56.0134L38.7537 56.0199C41.3534 57.9263 42.654 58.8801 44.0786 59.2486C45.3377 59.5742 46.6613 59.5742 47.9204 59.2486C49.3462 58.8798 50.6507 57.9232 53.2549 56.0134L76.6667 38.3333M75.9007 34.6512L54.4378 17.4669C51.7729 15.3332 50.4393 14.2667 48.9574 13.8432C47.6498 13.4695 46.2653 13.4497 44.9478 13.787C43.4548 14.1693 42.0933 15.1981 39.3703 17.2572L16.3665 34.6521C14.5812 36.0021 13.6897 36.6775 13.0461 37.5306C12.476 38.2863 12.0511 39.1409 11.7923 40.0513C11.5 41.0793 11.5 42.1986 11.5 44.4368V68.2337C11.5 72.5274 11.5 74.6753 12.3356 76.3153C13.0706 77.7579 14.2426 78.9299 15.6852 79.6649C17.3236 80.4997 19.4695 80.4997 23.7548 80.4997H68.2452C72.5305 80.4997 74.6733 80.4997 76.3117 79.6649C77.7543 78.9299 78.9302 77.757 79.6652 76.3144C80.5 74.6761 80.5 72.5321 80.5 68.2468V44.1848C80.5 42.0491 80.5 40.9746 80.2267 39.9821C79.983 39.097 79.5782 38.2629 79.0396 37.5194C78.4317 36.6803 77.59 36.0037 75.9007 34.6512Z" stroke="black" stroke-width="2" stroke-linecap="round" stroke-linejoin="round"/>
</svg>
