<svg width="20" height="22" viewBox="0 0 20 22" fill="none" xmlns="http://www.w3.org/2000/svg">
<path fill-rule="evenodd" clip-rule="evenodd" d="M6.4356 15.5218L5.9988 21.3518C5.9681 21.7614 6.3323 22.0436 6.65805 21.861C8.96445 20.5691 16.1891 15.8239 19.8508 5.39491C20.0188 4.91651 19.5676 4.48481 19.1823 4.75466C17.0194 6.26946 12.2923 9.40026 9.37105 9.99666C9.37105 9.99666 11.2418 8.69726 12.3616 6.70261C12.4713 6.50711 12.4622 6.25676 12.3398 6.08026L8.25635 0.194587C8.01435 -0.154303 7.5177 -0.00975314 7.4303 0.434972L6.15905 6.90361L0.192185 12.1113C-0.10699 12.3723 -0.0459596 12.8998 0.29945 13.0395L6.4356 15.5218Z" fill="#FCA382"/>
<path fill-rule="evenodd" clip-rule="evenodd" d="M16.9877 13.2245C16.6099 13.7517 15.7959 14.8363 15.0443 15.4992C14.894 15.6317 14.9143 15.8539 15.0867 15.9622L19.0577 18.455C19.2968 18.605 19.6197 18.4269 19.5793 18.1666C19.3946 16.9753 18.8623 14.4914 17.5169 13.1875C17.3666 13.042 17.1076 13.0573 16.9877 13.2245Z" fill="#FCA382"/>
</svg>
